# xmcd CD database file
#
# Track frame offsets:
#	150
#	19869
#	41795
#	64102
#	81882
#	107501
#	125927
#	144155
#	166323
#	185628
#
# Disc length: 2747 seconds
#
# Revision: 2
# Processed by: cddbd v1.5.2PL0 Copyright (c) Steve Scherf et al.
# Submitted via: CDex 1.70beta2
#
DISCID=890ab90a
DTITLE=Sowelu - Heads or Tails
DYEAR=2005
DGENRE=R&B
TTITLE0=Uh with HI-D and JUN 4 HOT from  FIRE BALL
TTITLE1=Get Ready -Nite 2 Remember- feat. Sowelu and BIG-O
TTITLE2=Let's go faraway feat.MICRO from HOME MADE家族 （Mine-chang remix）
TTITLE3=Do You Remember That? （DJ HIGH-D Remix）
TTITLE4=No Limit feat.P-CHO from DOBERMAN INC (BLremix）
TTITLE5=He is not for me (OCTOPUSSY Remix)
TTITLE6=暁ニ想フ feat. Miss Monday (HIEDA Remix)
TTITLE7=Play That Funky Music feat. urb
TTITLE8=cloudy feat.Masaya Wada. (Taishi Fukuyama remix)
TTITLE9=love for two
EXTD=YEAR: 2005
EXTT0=
EXTT1=
EXTT2=
EXTT3=
EXTT4=
EXTT5=
EXTT6=
EXTT7=
EXTT8=
EXTT9=
PLAYORDER=
